<svg width="24" height="24" viewBox="0 0 24 24" fill="none" xmlns="http://www.w3.org/2000/svg">
<path d="M17.0179 22.2043C18.3824 22.2043 19.6703 21.6821 20.6444 20.734C21.6185 19.7859 22.155 18.5323 22.155 17.2043V6.79573C22.155 5.46767 21.6185 4.21414 20.6444 3.266C19.6703 2.31786 18.3824 1.79571 17.0179 1.79571H6.98207C5.6176 1.79571 4.32969 2.31786 3.35556 3.266C2.38142 4.21414 1.84495 5.46767 1.84495 6.79573V17.2043C1.84495 18.5323 2.38142 19.7859 3.35556 20.734C4.32969 21.6821 5.6176 22.2043 6.98207 22.2043H17.0179ZM17.0179 24H6.98207C3.14192 24 0 20.9419 0 17.2043V6.79573C0 3.05806 3.14192 0 6.98207 0H17.0179C20.8581 0 24 3.05806 24 6.79573V17.2043C24 20.9419 20.8581 24 17.0179 24Z" fill="white"/>
<path d="M12.0053 7.70039C9.6152 7.70039 7.67773 9.5862 7.67773 11.9124C7.67773 14.2387 9.6152 16.1245 12.0053 16.1245C14.3953 16.1245 16.3328 14.2387 16.3328 11.9124C16.3328 9.5862 14.3953 7.70039 12.0053 7.70039ZM18.6459 11.9074C18.6459 15.4599 15.687 18.3398 12.0371 18.3398C8.38714 18.3398 5.42824 15.4599 5.42824 11.9074C5.42824 8.3548 8.38714 5.47488 12.0371 5.47488C15.687 5.47488 18.6459 8.3548 18.6459 11.9074Z" fill="white"/>
<path d="M20.3169 5.37484C20.3169 6.21601 19.6163 6.89797 18.752 6.89797C17.8878 6.89797 17.1872 6.21601 17.1872 5.37484C17.1872 4.53368 17.8878 3.85172 18.752 3.85172C19.6163 3.85172 20.3169 4.53368 20.3169 5.37484Z" fill="white"/>
</svg>
