<svg width="24" height="24" viewBox="0 0 24 24" fill="none" xmlns="http://www.w3.org/2000/svg">
<path d="M22.2 2.94441e-05H1.8C0.840002 2.94441e-05 1.83105e-06 0.723603 1.83105e-06 1.68843V22.3116C1.83105e-06 23.2764 0.840002 24 1.8 24H22.2C23.16 24 24 23.2764 24 22.3116V1.68843C24 0.844206 23.16 2.94441e-05 22.2 2.94441e-05ZM7.08 20.6231H3.48V9.16583H7.08V20.6231ZM5.28 7.47736C4.08 7.47736 3.24 6.51259 3.24 5.42716C3.24 4.34174 4.2 3.3769 5.28 3.3769C6.36 3.3769 7.32 4.34174 7.32 5.42716C7.44 6.6332 6.48 7.47736 5.28 7.47736ZM20.4 20.6231H16.8V15.0754C16.8 13.7488 16.8 12.0603 15 12.0603C13.2 12.0603 12.84 13.5076 12.84 15.0754V20.7437H9.24001V9.2864H12.6V10.8543C13.08 9.88948 14.28 9.04526 15.96 9.04526C19.56 9.04526 20.28 11.4573 20.28 14.4724V20.6231H20.4Z" fill="white"/>
</svg>
